<svg xmlns="http://www.w3.org/2000/svg" viewBox="0 0 1200 385" width="1200" height="385" role="img" aria-label="1,221 contributions in the last year, 10 day current streak, top language Swift.">
  <rect x="0" y="0" width="386" height="110" rx="14" fill="#2C2C31" stroke="#3B3B41"/>
  <text x="22" y="38" font-family="-apple-system, BlinkMacSystemFont, 'Segoe UI', Helvetica, Arial, sans-serif" font-size="18" fill="#8E8E93">Contributions (12 mo)</text>
  <text x="22" y="88" font-family="-apple-system, BlinkMacSystemFont, 'Segoe UI', Helvetica, Arial, sans-serif" font-size="40" font-weight="600" fill="#DFDFE0">1,221</text>
  <rect x="407" y="0" width="386" height="110" rx="14" fill="#2C2C31" stroke="#3B3B41"/>
  <text x="429" y="38" font-family="-apple-system, BlinkMacSystemFont, 'Segoe UI', Helvetica, Arial, sans-serif" font-size="18" fill="#8E8E93">Current streak</text>
  <text x="429" y="88" font-family="-apple-system, BlinkMacSystemFont, 'Segoe UI', Helvetica, Arial, sans-serif" font-size="40" font-weight="600" fill="#F05138">10 days</text>
  <rect x="814" y="0" width="386" height="110" rx="14" fill="#2C2C31" stroke="#3B3B41"/>
  <text x="836" y="38" font-family="-apple-system, BlinkMacSystemFont, 'Segoe UI', Helvetica, Arial, sans-serif" font-size="18" fill="#8E8E93">Longest streak (12 mo)</text>
  <text x="836" y="88" font-family="-apple-system, BlinkMacSystemFont, 'Segoe UI', Helvetica, Arial, sans-serif" font-size="40" font-weight="600" fill="#DFDFE0">11 days</text>
  <rect x="0" y="131" width="386" height="110" rx="14" fill="#2C2C31" stroke="#3B3B41"/>
  <text x="22" y="169" font-family="-apple-system, BlinkMacSystemFont, 'Segoe UI', Helvetica, Arial, sans-serif" font-size="18" fill="#8E8E93">Merged PRs in other repos</text>
  <text x="22" y="219" font-family="-apple-system, BlinkMacSystemFont, 'Segoe UI', Helvetica, Arial, sans-serif" font-size="40" font-weight="600" fill="#F05138">6</text>
  <rect x="407" y="131" width="386" height="110" rx="14" fill="#2C2C31" stroke="#3B3B41"/>
  <text x="429" y="169" font-family="-apple-system, BlinkMacSystemFont, 'Segoe UI', Helvetica, Arial, sans-serif" font-size="18" fill="#8E8E93">Repos contributed to</text>
  <text x="429" y="219" font-family="-apple-system, BlinkMacSystemFont, 'Segoe UI', Helvetica, Arial, sans-serif" font-size="40" font-weight="600" fill="#DFDFE0">12</text>
  <rect x="814" y="131" width="386" height="110" rx="14" fill="#2C2C31" stroke="#3B3B41"/>
  <text x="836" y="169" font-family="-apple-system, BlinkMacSystemFont, 'Segoe UI', Helvetica, Arial, sans-serif" font-size="18" fill="#8E8E93">Own repositories</text>
  <text x="836" y="219" font-family="-apple-system, BlinkMacSystemFont, 'Segoe UI', Helvetica, Arial, sans-serif" font-size="40" font-weight="600" fill="#DFDFE0">18</text>
  <text x="0" y="283" font-family="-apple-system, BlinkMacSystemFont, 'Segoe UI', Helvetica, Arial, sans-serif" font-size="18" font-weight="600" letter-spacing="1.4" fill="#8E8E93">Languages by bytes of code</text>
  <clipPath id="bar"><rect x="0" y="297" width="1200" height="20" rx="10"/></clipPath>
  <g clip-path="url(#bar)">
    <rect x="0.0" y="297" width="753.7" height="20" fill="#F05138"/>
    <rect x="752.7" y="297" width="206.8" height="20" fill="#3572A5"/>
    <rect x="958.5" y="297" width="159.7" height="20" fill="#3178C6"/>
    <rect x="1117.2" y="297" width="40.7" height="20" fill="#E34C26"/>
    <rect x="1156.9" y="297" width="35.2" height="20" fill="#F1E05A"/>
    <rect x="1191.1" y="297" width="8.9" height="20" fill="#3B3B41"/>
  </g>
  <rect x="0" y="341" width="164" height="40" rx="10" fill="#2C2C31" stroke="#3B3B41"/>
  <circle cx="18" cy="361" r="5" fill="#F05138"/>
  <text x="32" y="367" font-family="-apple-system, BlinkMacSystemFont, 'Segoe UI', Helvetica, Arial, sans-serif" font-size="20" fill="#DFDFE0">Swift 62.7%</text>
  <rect x="174" y="341" width="174" height="40" rx="10" fill="#2C2C31" stroke="#3B3B41"/>
  <circle cx="192" cy="361" r="5" fill="#3572A5"/>
  <text x="206" y="367" font-family="-apple-system, BlinkMacSystemFont, 'Segoe UI', Helvetica, Arial, sans-serif" font-size="20" fill="#DFDFE0">Python 17.2%</text>
  <rect x="358" y="341" width="216" height="40" rx="10" fill="#2C2C31" stroke="#3B3B41"/>
  <circle cx="376" cy="361" r="5" fill="#3178C6"/>
  <text x="390" y="367" font-family="-apple-system, BlinkMacSystemFont, 'Segoe UI', Helvetica, Arial, sans-serif" font-size="20" fill="#DFDFE0">TypeScript 13.2%</text>
  <rect x="584" y="341" width="143" height="40" rx="10" fill="#2C2C31" stroke="#3B3B41"/>
  <circle cx="602" cy="361" r="5" fill="#E34C26"/>
  <text x="616" y="367" font-family="-apple-system, BlinkMacSystemFont, 'Segoe UI', Helvetica, Arial, sans-serif" font-size="20" fill="#DFDFE0">HTML 3.3%</text>
  <rect x="737" y="341" width="206" height="40" rx="10" fill="#2C2C31" stroke="#3B3B41"/>
  <circle cx="755" cy="361" r="5" fill="#F1E05A"/>
  <text x="769" y="367" font-family="-apple-system, BlinkMacSystemFont, 'Segoe UI', Helvetica, Arial, sans-serif" font-size="20" fill="#DFDFE0">JavaScript 2.9%</text>
</svg>
